PERFORMER "Carl Cox"
TITLE "Essential Mix (2009-04-11) [TMB]"
FILE "Essential Mix_Carl Cox_2009_04_11.mp3" MP3
  TRACK 01 AUDIO
    PERFORMER "Essential Mix"
    TITLE "Intro"
    INDEX 01 00:00:00
  TRACK 02 AUDIO
    PERFORMER "Depeche Mode"
    TITLE "Personal Jesus (TVR Remix)"
    INDEX 01 01:50:13
  TRACK 03 AUDIO
    PERFORMER "George F"
    TITLE "Simo"
    INDEX 01 07:06:63
  TRACK 04 AUDIO
    PERFORMER "Mauro Picotto"
    TITLE "Living For The Time (Technasia Hard Mix)"
    INDEX 01 13:22:64
  TRACK 05 AUDIO
    PERFORMER "De La Soul vs. Kurd Madvrick"
    TITLE "Ring Ring Ring Hay How You Doing?"
    INDEX 01 18:58:38
  TRACK 06 AUDIO
    PERFORMER "Faithless feat. Cass Fox"
    TITLE "Music Matters (Mark Knight Remix)"
    INDEX 01 25:55:19
  TRACK 07 AUDIO
    PERFORMER "Elio Riso"
    TITLE "Trombone In Ibiza"
    INDEX 01 32:10:49
  TRACK 08 AUDIO
    PERFORMER "The Chemical Brothers"
    TITLE "Block Rockin' Beats (Tim Davison Mix)"
    INDEX 01 39:06:74
  TRACK 09 AUDIO
    PERFORMER "Jay Kay"
    TITLE "Belfast Kiss"
    INDEX 01 43:51:25
  TRACK 10 AUDIO
    PERFORMER "Nic Fanciulli"
    TITLE "20%"
    INDEX 01 48:00:74
  TRACK 11 AUDIO
    PERFORMER "Greg Gow"
    TITLE "Section 23 (Old Skool Banger Mix)"
    INDEX 01 52:25:29
  TRACK 12 AUDIO
    PERFORMER "Jon Rundell"
    TITLE "Damager"
    INDEX 01 56:40:45
  TRACK 13 AUDIO
    PERFORMER "Umek"
    TITLE "Gatex (Fergie Mix)"
    INDEX 01 61:57:25
  TRACK 14 AUDIO
    PERFORMER "Sergy Casttle"
    TITLE "Arpeiator"
    INDEX 01 69:20:48
  TRACK 15 AUDIO
    PERFORMER "Dave Clarke"
    TITLE "Red 2 (Yousef Edit)"
    INDEX 01 73:15:00
  TRACK 16 AUDIO
    PERFORMER "Mason"
    TITLE "Kippschwinger"
    INDEX 01 77:16:67
  TRACK 17 AUDIO
    PERFORMER "Petrae Foy & Ptc Project"
    TITLE "Long Train Final Mix"
    INDEX 01 80:19:58
  TRACK 18 AUDIO
    PERFORMER "James Talk"
    TITLE "Yucca"
    INDEX 01 86:54:44
  TRACK 19 AUDIO
    PERFORMER "Sharam"
    TITLE "Say Yeah"
    INDEX 01 92:38:05
  TRACK 20 AUDIO
    PERFORMER "Shin Nishimura"
    TITLE "Frustration"
    INDEX 01 97:03:74
  TRACK 21 AUDIO
    PERFORMER "Umek"
    TITLE "Designed Persona (Andy Chatterley Remix)"
    INDEX 01 101:40:20
  TRACK 22 AUDIO
    PERFORMER "Pet Shop Boys"
    TITLE "Love Etc. (Kurd Maverick Club)"
    INDEX 01 107:35:57
  TRACK 23 AUDIO
    PERFORMER "Ralvero"
    TITLE "Party People"
    INDEX 01 112:21:27
  TRACK 24 AUDIO
    PERFORMER "Steve Mac & Paul Harris"
    TITLE "Dizzy Heights"
    INDEX 01 116:42:74